<svg viewBox="0 0 512 512"><g><path clip-rule="evenodd" d="m29.991 23.173h452.019c16.497 0 29.99 13.493 29.99 29.991v281.03c0 16.498-13.493 29.991-29.99 29.991h-452.019c-16.497 0-29.991-13.493-29.991-29.99v-281.03c0-16.498 13.494-29.992 29.991-29.992z" fill="#e9f4ff" fill-rule="evenodd"/><path clip-rule="evenodd" d="m457.008 23.173h25.002c16.497 0 29.99 13.493 29.99 29.991v281.03c0 16.498-13.493 29.991-29.99 29.991h-25.002c16.498 0 29.991-13.493 29.991-29.991v-281.029c-.001-16.498-13.493-29.992-29.991-29.992z" fill="#c2e3ff" fill-rule="evenodd"/><path d="m178.557 165.73c-3.657 1.899-8.164.481-10.091-3.175-1.899-3.657-.482-8.165 3.175-10.064l51.308-26.985c1.049-.567 2.239-.879 3.458-.879h49.551c4.167 0 7.512 3.373 7.512 7.512s-3.345 7.483-7.512 7.483h-47.793zm-78.974-24.492c-3.685 1.843-8.164.34-10.006-3.345-1.843-3.685-.34-8.164 3.345-10.006l128.212-64.376c1.021-.539 2.183-.822 3.345-.822h51.479c4.167 0 7.512 3.345 7.512 7.483 0 4.139-3.345 7.512-7.512 7.512h-49.778z" fill="#95d6a4"/><g clip-rule="evenodd" fill-rule="evenodd"><path d="m49.551 116.576c26.221-.057 75.771 9.44 110.411 22.48l38.098 39.431v22.281c0 11.055-9.043 20.098-20.098 20.098h-177.962v-97.768z" fill="#8ac7fd"/><path d="m49.551 116.576c26.221-.057 75.771 9.44 110.411 22.48l38.098 39.431v22.281c0 11.055-9.043 20.098-20.098 20.098h-25.002c11.056 0 20.098-9.043 20.098-20.098v-22.281c0-10.29-3.6-21.459-13.096-27.581-7.513-4.848-14.939-8.306-25.002-11.849-27.95-10.545-65.651-18.737-92.949-21.487z" fill="#62b5fe"/><path d="m159.962 139.055c22.082 8.334 38.098 18.113 38.098 27.78v11.65h-34.102c-2.778 0-3.997-1.474-3.997-3.997v-35.433z" fill="#f3d332"/><path d="m159.962 139.055c22.082 8.334 38.098 18.113 38.098 27.78v11.65h-25.002v-11.65c0-5.358-4.932-10.772-13.096-15.931z" fill="#ecc52e"/><path d="m0 88.173c19.078 14.315 35.887 28.432 49.551 28.403 0 12.105-9.894 21.969-21.969 21.969h-27.582z" fill="#c2e3ff"/><path d="m95.926 267.353c25.597 0 46.488-20.891 46.488-46.488 0-25.598-20.891-46.489-46.488-46.489-25.626 0-46.489 20.891-46.489 46.489.001 25.596 20.863 46.488 46.489 46.488z" fill="#027096"/><path d="m95.926 174.376c25.654 0 46.488 20.806 46.488 46.489 0 25.682-20.835 46.488-46.488 46.488-4.337 0-8.532-.595-12.501-1.701 19.587-5.471 33.987-23.442 33.987-44.788 0-21.345-14.4-39.317-33.987-44.788 3.969-1.105 8.164-1.7 12.501-1.7z" fill="#025d7f"/><path d="m95.926 240.338c10.715 0 19.474-8.759 19.474-19.474s-8.759-19.474-19.474-19.474c-10.744 0-19.475 8.759-19.475 19.474.001 10.715 8.732 19.474 19.475 19.474z" fill="#3291bc"/></g><path d="m0 163.207h22.224c4.139 0 7.512 3.345 7.512 7.512 0 4.139-3.373 7.483-7.512 7.483h-22.224z" fill="#3291bc"/><path clip-rule="evenodd" d="m213.82 364.185 42.067-5.697 42.294 5.697 17.83 83-59.841 6.293-60.151-6.293z" fill="#025d7f" fill-rule="evenodd"/><path clip-rule="evenodd" d="m273.178 364.185h25.003l17.83 83h-25.002z" fill="#004c66" fill-rule="evenodd"/><path clip-rule="evenodd" d="m156.361 447.185h199.279c11.452 0 20.835 9.355 20.835 20.806 0 11.453-9.382 20.835-20.835 20.835h-199.279c-11.452 0-20.806-9.383-20.806-20.835 0-11.451 9.354-20.806 20.806-20.806zm355.639-143.01v30.02c0 16.498-13.493 29.991-29.99 29.991h-452.019c-16.497-.001-29.991-13.494-29.991-29.991v-30.02z" fill="#3291bc" fill-rule="evenodd"/><path clip-rule="evenodd" d="m330.638 447.185h25.002c11.452 0 20.835 9.355 20.835 20.806 0 11.453-9.382 20.835-20.835 20.835h-25.002c11.452 0 20.835-9.383 20.835-20.835-.001-11.451-9.383-20.806-20.835-20.806zm181.362-143.01v30.02c0 16.498-13.493 29.991-29.99 29.991h-25.002c16.498 0 29.991-13.493 29.991-29.991v-30.02z" fill="#0681ad" fill-rule="evenodd"/><path d="m163.505 341.678c-4.139 0-7.512-3.345-7.512-7.483 0-4.167 3.374-7.512 7.512-7.512h13.011c4.139 0 7.483 3.345 7.483 7.512 0 4.139-3.345 7.483-7.483 7.483zm172.008 0c-4.139 0-7.512-3.345-7.512-7.483 0-4.167 3.373-7.512 7.512-7.512h12.983c4.167 0 7.512 3.345 7.512 7.512 0 4.139-3.345 7.483-7.512 7.483zm-43.002 0c-4.139 0-7.512-3.345-7.512-7.483 0-4.167 3.373-7.512 7.512-7.512h12.982c4.167 0 7.512 3.345 7.512 7.512 0 4.139-3.345 7.483-7.512 7.483zm-43.002 0c-4.139 0-7.512-3.345-7.512-7.483 0-4.167 3.373-7.512 7.512-7.512h13.011c4.139 0 7.483 3.345 7.483 7.512 0 4.139-3.345 7.483-7.483 7.483zm-43.002 0c-4.139 0-7.512-3.345-7.512-7.483 0-4.167 3.374-7.512 7.512-7.512h13.011c4.139 0 7.483 3.345 7.483 7.512 0 4.139-3.345 7.483-7.483 7.483z" fill="#025d7f"/><path clip-rule="evenodd" d="m283.979 117.143h74.495c4.394 0 7.994 3.6 7.994 7.994v14.003c0 4.394-3.6 7.994-7.994 7.994h-74.495c-4.422 0-8.022-3.6-8.022-7.994v-14.003c0-4.394 3.6-7.994 8.022-7.994zm0-61.966h74.495c4.394 0 7.994 3.6 7.994 7.994v14.003c0 4.394-3.6 7.994-7.994 7.994h-74.495c-4.422 0-8.022-3.6-8.022-7.994v-14.003c0-4.394 3.6-7.994 8.022-7.994z" fill="#f16f82" fill-rule="evenodd"/><path clip-rule="evenodd" d="m333.472 117.143h25.002c4.394 0 7.994 3.6 7.994 7.994v14.003c0 4.394-3.6 7.994-7.994 7.994h-25.002c4.394 0 7.994-3.6 7.994-7.994v-14.003c0-4.394-3.6-7.994-7.994-7.994zm0-61.966h25.002c4.394 0 7.994 3.6 7.994 7.994v14.003c0 4.394-3.6 7.994-7.994 7.994h-25.002c4.394 0 7.994-3.6 7.994-7.994v-14.003c0-4.394-3.6-7.994-7.994-7.994z" fill="#df646e" fill-rule="evenodd"/><path clip-rule="evenodd" d="m283.979 178.684h185.501c4.394 0 7.994 3.6 7.994 7.994v75.006c0 4.393-3.6 7.994-7.994 7.994h-185.501c-4.422 0-8.022-3.6-8.022-7.994v-75.006c0-4.394 3.6-7.994 8.022-7.994z" fill="#ffe07d" fill-rule="evenodd"/><path clip-rule="evenodd" d="m444.478 178.684h25.002c4.394 0 7.994 3.6 7.994 7.994v75.006c0 4.393-3.6 7.994-7.994 7.994h-25.002c4.394 0 7.994-3.6 7.994-7.994v-75.006c0-4.394-3.6-7.994-7.994-7.994z" fill="#f3d332" fill-rule="evenodd"/><path d="m314.366 199.803c2.552-3.232 7.257-3.799 10.489-1.219 3.231 2.551 3.77 7.228 1.219 10.488l-6.491 8.192 9.156 4.025c3.771 1.673 5.5 6.095 3.827 9.865-.34.794-.822 1.503-1.361 2.098l-12.132 15.308c-2.552 3.231-7.257 3.798-10.489 1.219-3.231-2.551-3.77-7.229-1.219-10.488l6.492-8.192-9.128-4.025v-.028c-.567-.255-1.105-.567-1.616-.964-3.232-2.551-3.798-7.256-1.247-10.488z" fill="#ecc52e"/><path d="m358.843 216.669c-4.139 0-7.484-3.345-7.484-7.483 0-4.139 3.345-7.512 7.484-7.512h82.999c4.139 0 7.512 3.374 7.512 7.512s-3.373 7.483-7.512 7.483zm0 30.019c-4.139 0-7.484-3.373-7.484-7.512s3.345-7.484 7.484-7.484h63.015c4.139 0 7.483 3.345 7.483 7.484s-3.345 7.512-7.483 7.512z" fill="#95d6a4"/><path d="m396.459 124.627c-4.139 0-7.484-3.345-7.484-7.484 0-4.167 3.345-7.512 7.484-7.512h73.503c4.139 0 7.512 3.345 7.512 7.512 0 4.139-3.374 7.484-7.512 7.484zm0-61.938c-4.139 0-7.484-3.374-7.484-7.512 0-4.139 3.345-7.512 7.484-7.512h73.503c4.139 0 7.512 3.374 7.512 7.512s-3.374 7.512-7.512 7.512zm0 29.991c-4.139 0-7.484-3.345-7.484-7.512 0-4.138 3.345-7.484 7.484-7.484h73.503c4.167 0 7.512 3.346 7.512 7.484 0 4.167-3.345 7.512-7.512 7.512zm0 61.937c-4.139 0-7.484-3.345-7.484-7.483s3.345-7.512 7.484-7.512h53.518c4.139 0 7.484 3.373 7.484 7.512s-3.345 7.483-7.484 7.483z" fill="#b1abb4"/></g></svg>