<svg  viewBox="0 0 64 64" fill="#165bb5" >
  <path d="M19 38a5 5 0 105-5 5 5 0 00-5 5zm5-4a4 4 0 11-4 4 4 4 0 014-4z"/>
  <path d="M31 38a6.97 6.97 0 01-2.11 5h11.67a3.906 3.906 0 01-.56-2 4 4 0 014-4 3.941 3.941 0 011.09.17l-1.36-5.88A4.949 4.949 0 0140 33a5 5 0 01-5-5 4.87 4.87 0 01.06-.55l-8.52 4.04A7 7 0 0131 38z"/>
  <path d="M40 31a3 3 0 10-3-3 3.009 3.009 0 003 3zm0-5a2 2 0 11-2 2 2 2 0 012-2z"/>
  <circle cx="24" cy="38" r="2"/>
  <path d="M4 29.76l.89 1.79A1 1 0 015 32v8a1 1 0 01-.11.45L4 42.24V48h4v-5.76l-.89-1.79A1 1 0 017 40v-8a1 1 0 01.11-.45L8 29.76V24H4zM38 14h2v3h-2zM9 35h3v2H9zM53 34h2v4h-2zM57 27h3v18h-3zM22.64 23.77A1 1 0 0122 24h-8v25h13v2h-5.28l2.86 5h22.84L51 49.73V19H28.36zM33 51h-4v-2h4zm7-28a5 5 0 014.98 4.8l2.67 11.59A3.943 3.943 0 0148 41a4 4 0 01-4 4H24a7 7 0 01-1.4-13.86l13.73-6.5A4.948 4.948 0 0140 23zM50.15 8h-20.3l-.67 4h21.64z"/>
  <circle cx="44" cy="41" r="2"/>
</svg>
