
<svg version="1.1"
	 viewBox="0 0 512 512">
<path style="fill:#5C5F65;" d="M429.852,71.989v420.949c0,6.364-3.461,12.229-9.027,15.301c-5.566,3.082-12.379,2.903-17.765-0.479
	l-0.01-0.01l-67.64-42.443l-70.103,44.029C262.474,511.112,259.242,512,256,512s-6.474-0.888-9.307-2.653l-70.173-44.039
	l-67.57,42.443c-5.396,3.381-12.199,3.571-17.775,0.489c-5.566-3.072-9.027-8.937-9.027-15.301V71.989
	C82.148,32.289,114.437,0,154.127,0h203.737C397.553,0,429.852,32.289,429.852,71.989z"/>
<path style="fill:#494949;" d="M429.852,71.989v420.949c0,6.364-3.461,12.229-9.027,15.301c-5.566,3.082-12.379,2.903-17.765-0.479
	l-0.01-0.01l-67.64-42.443l-70.103,44.029C262.474,511.112,259.242,512,256,512V0h101.863C397.553,0,429.852,32.289,429.852,71.989z
	"/>
<path style="fill:#FFB83B;" d="M342.482,227.377c5.596,6.075,5.197,15.541-0.888,21.137c-16.838,15.481-38.712,24.01-61.605,24.01
	c-8.299,0-16.339-1.117-23.99-3.212c-27.61-7.551-50.034-27.81-60.557-54.084h-22.224c-8.259,0-14.962-6.693-14.962-14.962
	c0-8.259,6.703-14.962,14.962-14.962h15.82c-0.05-1.267-0.08-2.534-0.08-3.82c0-1.406,0.04-2.813,0.1-4.209h-15.84
	c-8.259,0-14.962-6.693-14.962-14.962c0-8.259,6.703-14.962,14.962-14.962h22.384c10.593-26.074,32.927-46.174,60.398-53.685
	c7.641-2.095,15.69-3.212,23.99-3.212c24.827,0,48.019,9.805,65.315,27.62c5.765,5.925,5.626,15.401-0.309,21.157
	c-5.925,5.755-15.401,5.616-21.157-0.309c-11.611-11.96-27.182-18.543-43.849-18.543c-8.509,0-16.618,1.756-23.99,4.908
	c-10.863,4.658-20.119,12.379-26.673,22.064h24.349c0.788,0,1.566,0.06,2.324,0.18c7.162,1.117,12.638,7.312,12.638,14.783
	c0,7.481-5.476,13.666-12.638,14.783c-0.758,0.12-1.536,0.18-2.324,0.18h-34.633c-0.1,1.396-0.16,2.793-0.16,4.209
	c0,1.287,0.05,2.564,0.13,3.82h34.663c0.788,0,1.566,0.06,2.324,0.18c7.162,1.117,12.638,7.312,12.638,14.783
	c0,7.481-5.476,13.666-12.638,14.783c-0.758,0.12-1.536,0.18-2.324,0.18h-24.598c6.563,9.865,15.92,17.735,26.922,22.453
	c7.371,3.162,15.481,4.918,23.99,4.918c15.371,0,30.054-5.726,41.346-16.109C327.42,220.893,336.886,221.292,342.482,227.377z"/>
<g>
	<path style="fill:#FF9800;" d="M256,215.048v-29.566c7.162,1.117,12.638,7.312,12.638,14.783
		C268.638,207.747,263.162,213.931,256,215.048z"/>
	<path style="fill:#FF9800;" d="M256,177.094v-29.566c7.162,1.117,12.638,7.312,12.638,14.783
		C268.638,169.792,263.162,175.977,256,177.094z"/>
	<path style="fill:#FF9800;" d="M342.482,227.377c5.596,6.075,5.197,15.541-0.888,21.137c-16.838,15.481-38.712,24.01-61.605,24.01
		c-8.299,0-16.339-1.117-23.99-3.212v-31.63c7.371,3.162,15.481,4.918,23.99,4.918c15.371,0,30.054-5.726,41.346-16.109
		C327.42,220.893,336.886,221.292,342.482,227.377z"/>
	<path style="fill:#FF9800;" d="M279.99,120.377c-8.509,0-16.618,1.756-23.99,4.908v-31.62c7.641-2.095,15.69-3.212,23.99-3.212
		c24.827,0,48.019,9.805,65.315,27.62c5.765,5.925,5.626,15.401-0.309,21.157c-5.925,5.755-15.401,5.616-21.157-0.309
		C312.228,126.96,296.658,120.377,279.99,120.377z"/>
</g>
<path style="fill:#A2A7B2;" d="M349.534,343.953c0,8.259-6.693,14.962-14.962,14.962H173.219c-8.259,0-14.962-6.703-14.962-14.962
	c0-8.269,6.703-14.962,14.962-14.962h161.353C342.841,328.991,349.534,335.684,349.534,343.953z"/>
<path style="fill:#989CA6;" d="M334.575,407.333h-61.606c-8.263,0-14.962-6.699-14.962-14.962s6.699-14.962,14.962-14.962h61.606
	c8.263,0,14.962,6.699,14.962,14.962S342.838,407.333,334.575,407.333z"/>
<path style="fill:#A2A7B2;" d="M234.722,407.333h-21.706c-8.263,0-14.962-6.699-14.962-14.962s6.699-14.962,14.962-14.962h21.706
	c8.263,0,14.962,6.699,14.962,14.962S242.986,407.333,234.722,407.333z"/>
<path style="fill:#989CA6;" d="M349.534,343.953c0,8.259-6.693,14.962-14.962,14.962H256v-29.925h78.572
	C342.841,328.991,349.534,335.684,349.534,343.953z"/>

</svg>
