<svg  viewBox="0 0 64 64"><path d="m37 17h-7a1 1 0 0 0 -1 1v2a4 4 0 0 0 4 4 1 1 0 0 1 1 1v1a2 2 0 0 1 -2 2h-2a6 6 0 0 0 -6 6 6 6 0 0 1 6-6h2a2 2 0 0 0 2-2v-1h-21v20h20v-3.194a8 8 0 0 1 1.753-5l4.494-5.618a8 8 0 0 0 1.753-5v-5.188a4 4 0 0 0 -4-4z" fill="#ffbcab"/><path d="m22 21a3 3 0 0 0 3-3v-10a3 3 0 0 0 -6 0v10a3 3 0 0 0 3 3z" fill="#ffbcab"/><path d="m30.82 17h6.18v-9a3 3 0 0 0 -6 0v8a2.772 2.772 0 0 1 -.18 1z" fill="#ffd2c7"/><path d="m25.88 18.12a2.993 2.993 0 0 0 2.12.88 2.772 2.772 0 0 0 1-.18v-.82a1 1 0 0 1 1-1h.82a2.772 2.772 0 0 0 .18-1v-10a3 3 0 0 0 -6 0v10a2.993 2.993 0 0 0 .88 2.12z" fill="#ffc3b4"/><path d="m34 25h-24a6 6 0 0 1 0-12h3v7a3 3 0 0 0 6 0v-2a3 3 0 0 0 6 0v-2a3 3 0 0 0 3 3 2.772 2.772 0 0 0 1-.18v1.18a4 4 0 0 0 4 4 1 1 0 0 1 1 1z" fill="#ff3051"/><path d="m33 24a3.982 3.982 0 0 1 -3.446-2h-11.33a2.973 2.973 0 0 1 -4.448 0h-3.776a6 6 0 0 1 -5.8-4.5 5.978 5.978 0 0 0 5.8 7.5h24a1 1 0 0 0 -1-1z" fill="#df2a47"/><path d="m50 23h11.16a9.987 9.987 0 0 1 -17.15 2h-3.01v-4a4 4 0 0 0 -4-4v-4h7.01a9.987 9.987 0 0 1 17.15 2h-11.16l-3 4z" fill="#ff3051"/><path d="m52 26a9.951 9.951 0 0 1 -7.478-3.371 1.931 1.931 0 0 0 -1.453-.629h-2.069v3h3.01a9.987 9.987 0 0 0 17.15-2h-2.027a9.955 9.955 0 0 1 -7.133 3z" fill="#df2a47"/><path d="m16 23a3 3 0 0 0 3-3v-10a3 3 0 0 0 -6 0v10a3 3 0 0 0 3 3z" fill="#ffc3b4"/><path d="m9 45h28v16h-28z" fill="#006df0"/><circle cx="15" cy="53" fill="#f1f2f2" r="2"/><path d="m9 45h28v3h-28z" fill="#005ece"/><path d="m33 25a2 2 0 0 1 -2 2h-2a6 6 0 0 0 -6 6h1.09a6 6 0 0 1 5.91-5h1a3 3 0 0 0 3-3z" fill="#dfa596"/></svg>