<svg viewBox="0 0 179.012 179.012">
  <path d="M155.78 101.592c-3.031-22.447-15.406-38.809-30.652-38.809H53.89c-15.257 0-27.627 16.355-30.664 38.803-11.003 5.567-16.707 17.107-16.707 30.479 0 10.293 3.371 19.488 9.923 25.729v21.218h26.403v-12.9h93.322v12.9h26.403v-21.218c6.546-6.241 9.923-15.436 9.923-25.729-.006-13.366-5.71-24.912-16.713-30.473zM53.884 70.707h71.232c10.036 0 18.82 11.898 22.089 27.997-1.635-.304-3.371-.477-5.155-.567 0-.036.012-.066.012-.095 0-9.344-7.596-16.946-16.946-16.946s-16.946 7.602-16.946 16.946H39.134c-2.608 0-5.054.227-7.357.656 3.275-16.099 12.065-27.991 22.107-27.991zm82.898 27.341h-23.313c0-6.438 5.233-11.665 11.665-11.665 6.415-.001 11.648 5.226 11.648 11.665zM35.184 143.133c-6.098 0-11.057-4.947-11.057-11.063 0-6.104 4.958-11.063 11.057-11.063 6.11 0 11.069 4.953 11.069 11.063-.001 6.129-4.953 11.063-11.069 11.063zm86.436-1.963H57.374c-1.462 0-2.643-1.187-2.643-2.643 0-1.45 1.181-2.631 2.643-2.631h64.245c1.462 0 2.643 1.181 2.643 2.631.001 1.456-1.18 2.643-2.642 2.643zm0-9.684H57.374c-1.462 0-2.643-1.187-2.643-2.643 0-1.456 1.181-2.631 2.643-2.631h64.245c1.462 0 2.643 1.181 2.643 2.631.001 1.456-1.18 2.643-2.642 2.643zm22.196 11.647c-6.104 0-11.063-4.947-11.063-11.063 0-6.104 4.958-11.063 11.063-11.063 6.098 0 11.063 4.953 11.063 11.063-.006 6.129-4.964 11.063-11.063 11.063zM131.089 32.734c3.789 6.062 10.466 10.126 18.145 10.132 8.407 0 15.603-4.887 19.118-11.934l-14.267-.006c-5.054.012-9.147-4.236-9.147-9.499.006-5.233 4.099-9.481 9.141-9.493h14.261C164.85 4.887 157.642.006 149.222 0c-7.667-.006-14.344 4.069-18.139 10.144H40.858c-3.162-3.64-7.763-5.973-12.954-5.973-9.541-.006-17.274 7.721-17.268 17.268 0 9.523 7.727 17.25 17.256 17.262 5.191 0 9.792-2.357 12.966-5.967h90.231zM23.363 29.315l-4.547-7.87 4.553-7.864 9.076-.012 4.547 7.876-4.541 7.87h-9.088z" fill="#165bb5"/>
</svg>
