<svg viewBox="0 0 64 64" data-name="Repair Service"><path d="m53 18h-42l1.443-10.658a4 4 0 0 1 3.946-3.342h31.222a4 4 0 0 1 3.946 3.342z" fill="#2488ff"/><path d="m61 31h-58v-9a4 4 0 0 1 4-4h50a4 4 0 0 1 4 4z" fill="#ec455a"/><path d="m3 24h58v11h-58z" fill="none"/><path d="m14 45h-8a1 1 0 0 1 -1-1v-9h10v9a1 1 0 0 1 -1 1z" fill="#3e3d42"/><path d="m58 44h-8a1 1 0 0 1 -1-1v-8h10v8a1 1 0 0 1 -1 1z" fill="#3e3d42"/><path d="m7 24h12v7h-12z" fill="#fff"/><path d="m45 24h12v7h-12z" fill="#fff"/><path d="m9 18-6-1v-4h4z" fill="#898890"/><path d="m55 18 6-1v-4h-4z" fill="#57565c"/><path d="m3 31h58v4h-58z" fill="#787680"/><rect fill="#ffc740" height="32" rx="2" width="34" x="15" y="28"/><path d="m20.1 35.1 4 4 2.121-.707.708-2.121-4-4a5.991 5.991 0 0 1 8.578 5.486 3.932 3.932 0 0 0 1.164 2.842l9.815 9.815a3 3 0 0 1 0 4.242 3 3 0 0 1 -4.243 0l-9.807-9.807a4.064 4.064 0 0 0 -2.9-1.167 5.99 5.99 0 0 1 -5.436-8.583z" fill="#d8d7da"/><path d="m38.657 31.343a3 3 0 0 1 3 3v11a0 0 0 0 1 0 0h-6a0 0 0 0 1 0 0v-11a3 3 0 0 1 3-3z" fill="#8cc63e" transform="matrix(.707 .707 -.707 .707 38.435 -16.104)"/><path d="m28.757 51.071 6.364-6.364-2.828-2.828-6.364 6.364h-1.414l-3.536 4.949 2.829 2.829 4.949-3.536z" fill="#e9e9ea"/><path d="m62 17v-4a1 1 0 0 0 -1-1h-4a1 1 0 0 0 -.93.63l-1.75 4.37h-.45l-1.33-9.82a4.978 4.978 0 0 0 -4.93-4.18h-31.22a5 5 0 0 0 -4.94 4.21l-1.32 9.79h-.45l-1.75-4.37a1 1 0 0 0 -.93-.63h-4a1 1 0 0 0 -1 1v4a1 1 0 0 0 .84.99l1 .16a5 5 0 0 0 -1.84 3.85v13a1 1 0 0 0 1 1h1v8a2.006 2.006 0 0 0 2 2h8v12a3.009 3.009 0 0 0 3 3h30a3.009 3.009 0 0 0 3-3v-13h8a2.006 2.006 0 0 0 2-2v-7h1a1 1 0 0 0 1-1v-13a5 5 0 0 0 -1.84-3.85l1-.16a1 1 0 0 0 .84-.99zm-48.57-9.49a2.988 2.988 0 0 1 2.96-2.51h31.22a2.989 2.989 0 0 1 2.96 2.48l1.29 9.52h-14.45l3-3h8.59v-2h-9a1.033 1.033 0 0 0 -.71.29l-4.7 4.71h-16.18l3-3h8.59v-2h-9a1.033 1.033 0 0 0 -.71.29l-4.7 4.71h-3.45zm-9.43 6.49h2.32l1.09 2.72-3.41-.57zm0 11h2v5h-2zm10 19h-8v-8h1v2h2v-2h5zm0-10h-10v-2h10zm0-4h-6v-5h10v2h-1a3.009 3.009 0 0 0 -3 3zm34 28a1 1 0 0 1 -1 1h-30a1 1 0 0 1 -1-1v-28a1 1 0 0 1 1-1h30a1 1 0 0 1 1 1zm-28-31v-2h24v2zm27 0h-1v-2h10v5h-6a3.009 3.009 0 0 0 -3-3zm11 16h-5v-3h-2v3h-1v-7h5v2h2v-2h1zm2-9h-10v-2h10zm0-4h-2v-5h2zm0-7h-56v-1a3.009 3.009 0 0 1 3-3h50a3.009 3.009 0 0 1 3 3zm0-6.85-3.41.57 1.09-2.72h2.32z"/><path d="m7 39h2v2h-2z"/><path d="m11 40h2v3h-2z"/><path d="m11 37h2v2h-2z"/><path d="m55 39h2v2h-2z"/><path d="m51 37h2v2h-2z"/><path d="m45.485 35.515a4 4 0 0 0 -6.828-2.828l-6 6a2.879 2.879 0 0 1 -.146-.916 6.943 6.943 0 0 0 -2.045-5.041 7.014 7.014 0 0 0 -7.966-1.352 1 1 0 0 0 -.274 1.61l3.561 3.552-.357 1.06-1.06.355-3.563-3.562a1 1 0 0 0 -1.609.275 7.077 7.077 0 0 0 .636 7.124 6.966 6.966 0 0 0 5.657 2.888 3.082 3.082 0 0 1 1.948.639l-1.924 1.924h-1a1 1 0 0 0 -.814.419l-3.535 4.949a1 1 0 0 0 .106 1.288l2.828 2.829a1 1 0 0 0 1.288.106l4.95-3.534a1 1 0 0 0 .419-.814v-1l1.952-1.951 5.824 5.833a3.971 3.971 0 0 0 2.827 1.172 4.005 4.005 0 0 0 2.84-6.84l-5.122-5.122 6.238-6.238a3.971 3.971 0 0 0 1.169-2.825zm-19.961 7.165a4.92 4.92 0 0 1 -4.074-2.067 5.032 5.032 0 0 1 -.884-3.632l2.827 2.826a1 1 0 0 0 1.024.241l2.121-.71a1 1 0 0 0 .63-.63l.71-2.121a1 1 0 0 0 -.242-1.025l-2.826-2.82a5.013 5.013 0 0 1 4.243 1.405 4.961 4.961 0 0 1 1.457 3.6 4.947 4.947 0 0 0 .63 2.453l-.261.261a1 1 0 0 0 0 1.414l-2.025 2.025a5.077 5.077 0 0 0 -3.33-1.22zm2.526 7.684a1 1 0 0 0 -.293.707v.9l-3.841 2.744-1.631-1.631 2.744-3.841h.9a1 1 0 0 0 .707-.293l5.657-5.657 1.414 1.414zm13.733.753a2.012 2.012 0 0 1 .006 2.83 2.055 2.055 0 0 1 -2.841.007l-5.825-5.834 2-2a1 1 0 0 0 1.414 0l.124-.12zm1.117-14.188-7.072 7.071-2.828-2.829 7.071-7.07a2.047 2.047 0 0 1 2.828 0 2 2 0 0 1 0 2.828z"/></svg>